<svg xmlns="http://www.w3.org/2000/svg" viewBox="0 0 720 260" width="720" height="260" font-family="IBM Plex Sans, sans-serif">
  <rect width="720" height="260" fill="#0f1115"/>
  <text x="24" y="34" fill="#e6e9ef" font-size="15" font-weight="600">決済フロー（与信 → 確定 → 台帳）</text>

  <g stroke="#242a34" stroke-width="1" fill="#13151a">
    <rect x="24"  y="70" width="130" height="54" rx="6"/>
    <rect x="204" y="70" width="130" height="54" rx="6"/>
    <rect x="384" y="70" width="130" height="54" rx="6"/>
    <rect x="564" y="70" width="130" height="54" rx="6"/>
    <rect x="384" y="170" width="130" height="54" rx="6"/>
  </g>
  <g fill="#c3cad6" font-size="12" text-anchor="middle">
    <text x="89"  y="102">注文サービス</text>
    <text x="269" y="102">payment-api</text>
    <text x="449" y="102">PSP（外部）</text>
    <text x="629" y="102">settlement-worker</text>
    <text x="449" y="202">ledger（追記のみ）</text>
  </g>

  <g stroke="#4f9dff" stroke-width="1.6" fill="none" marker-end="url(#a)">
    <path d="M154 97 H198"/>
    <path d="M334 97 H378"/>
    <path d="M514 97 H558"/>
    <path d="M629 124 V197 H520"/>
  </g>
  <defs>
    <marker id="a" markerWidth="8" markerHeight="8" refX="7" refY="4" orient="auto">
      <path d="M0 0 L8 4 L0 8 z" fill="#4f9dff"/>
    </marker>
  </defs>

  <g fill="#8b93a3" font-size="9.5" text-anchor="middle">
    <text x="176" y="88">冪等キー</text>
    <text x="356" y="88">与信</text>
    <text x="536" y="88">webhook</text>
    <text x="600" y="168">確定</text>
  </g>
  <text x="24" y="244" fill="#5b626f" font-size="10">同期で返すのは与信確保まで。売上が立つのは webhook を受けた確定処理のとき。</text>
</svg>
